<svg width="368" height="189" viewBox="0 0 368 189" fill="none" xmlns="http://www.w3.org/2000/svg">
<path d="M34.1901 0.817352H37.3574V19.5144C37.3574 21.1831 37.0509 22.6007 36.4379 23.7672C35.8248 24.9336 34.9607 25.8191 33.8453 26.4236C32.73 27.0281 31.4145 27.3303 29.899 27.3303C28.4686 27.3303 27.1958 27.0707 26.0804 26.5513C24.9651 26.0234 24.0881 25.2742 23.4496 24.3036C22.811 23.3329 22.4917 22.1793 22.4917 20.8426H25.6079C25.6079 21.5833 25.7909 22.2304 26.1571 22.7838C26.5317 23.3287 27.0425 23.7544 27.6896 24.0609C28.3367 24.3674 29.0731 24.5207 29.899 24.5207C30.81 24.5207 31.5848 24.3291 32.2234 23.946C32.8619 23.5628 33.3472 23.0009 33.6793 22.2602C34.0198 21.5109 34.1901 20.5957 34.1901 19.5144V0.817352Z" fill="#23499A"/>
<path d="M49.0686 27.4325C47.8255 27.4325 46.6974 27.1983 45.6842 26.7301C44.671 26.2533 43.8664 25.5679 43.2704 24.6739C42.6744 23.7714 42.3765 22.6816 42.3765 21.4045C42.3765 20.2806 42.5978 19.3696 43.0406 18.6715C43.4833 17.9648 44.075 17.4114 44.8158 17.0112C45.5565 16.6111 46.3738 16.3131 47.2678 16.1172C48.1703 15.9129 49.0771 15.7511 49.9881 15.6319C51.1801 15.4787 52.1464 15.3637 52.8871 15.2871C53.6364 15.202 54.1813 15.0615 54.5218 14.8657C54.8709 14.6698 55.0455 14.3293 55.0455 13.844V13.7418C55.0455 12.4817 54.7006 11.5026 54.011 10.8044C53.3299 10.1063 52.2954 9.75719 50.9076 9.75719C49.4687 9.75719 48.3406 10.0722 47.5232 10.7023C46.7059 11.3323 46.1312 12.0049 45.7991 12.7201L42.9384 11.6984C43.4492 10.5064 44.1304 9.57839 44.9818 8.91429C45.8417 8.24168 46.7783 7.7734 47.7914 7.50946C48.8131 7.23701 49.8178 7.10078 50.8054 7.10078C51.4355 7.10078 52.1592 7.1774 52.9765 7.33066C53.8024 7.4754 54.5985 7.77765 55.3647 8.23741C56.1395 8.69718 56.7823 9.39108 57.2932 10.3191C57.804 11.2472 58.0595 12.4902 58.0595 14.0483V26.9727H55.0455V24.3163H54.8922C54.6879 24.7421 54.3473 25.1976 53.8705 25.6829C53.3937 26.1682 52.7594 26.5811 51.9676 26.9217C51.1758 27.2622 50.2094 27.4325 49.0686 27.4325ZM49.5283 24.725C50.7203 24.725 51.725 24.4909 52.5423 24.0226C53.3682 23.5543 53.9897 22.9498 54.4069 22.2091C54.8326 21.4683 55.0455 20.6893 55.0455 19.872V17.1134C54.9178 17.2666 54.6368 17.4071 54.2026 17.5348C53.7769 17.654 53.283 17.7605 52.7211 17.8541C52.1677 17.9393 51.627 18.0159 51.0992 18.084C50.5798 18.1436 50.1584 18.1947 49.8348 18.2372C49.0515 18.3394 48.3193 18.5054 47.6382 18.7353C46.9656 18.9567 46.4207 19.293 46.0035 19.7442C45.5948 20.187 45.3905 20.7915 45.3905 21.5578C45.3905 22.605 45.7778 23.3968 46.5526 23.9332C47.3359 24.4611 48.3278 24.725 49.5283 24.725Z" fill="#23499A"/>
<path d="M63.5606 26.9727V7.3562H66.5746V26.9727H63.5606ZM65.0932 4.08678C64.5057 4.08678 63.9991 3.88671 63.5734 3.48654C63.1562 3.08638 62.9476 2.60533 62.9476 2.0434C62.9476 1.48146 63.1562 1.00041 63.5734 0.60025C63.9991 0.200087 64.5057 0 65.0932 0C65.6807 0 66.183 0.200087 66.6002 0.60025C67.0259 1.00041 67.2387 1.48146 67.2387 2.0434C67.2387 2.60533 67.0259 3.08638 66.6002 3.48654C66.183 3.88671 65.6807 4.08678 65.0932 4.08678Z" fill="#23499A"/>
<path d="M75.109 15.1722V26.9727H72.095V7.3562H75.0068V10.4213H75.2622C75.722 9.42513 76.4202 8.62481 77.3567 8.02031C78.2933 7.40729 79.5023 7.10078 80.9837 7.10078C82.3119 7.10078 83.4741 7.37323 84.4703 7.91814C85.4664 8.45453 86.2412 9.27189 86.7946 10.3702C87.348 11.46 87.6247 12.8393 87.6247 14.5081V26.9727H84.6107V14.7124C84.6107 13.1713 84.2106 11.9709 83.4103 11.1109C82.6099 10.2425 81.5116 9.80827 80.1153 9.80827C79.1532 9.80827 78.2933 10.0169 77.5355 10.4341C76.7863 10.8512 76.1945 11.46 75.7603 12.2603C75.3261 13.0607 75.109 14.0313 75.109 15.1722Z" fill="#23499A"/>
<path d="M117.959 7.3562C117.806 6.06206 117.185 5.0574 116.095 4.34221C115.005 3.62702 113.668 3.26942 112.085 3.26942C110.927 3.26942 109.914 3.45674 109.045 3.83136C108.185 4.20598 107.513 4.72108 107.027 5.37666C106.551 6.03225 106.312 6.77725 106.312 7.61163C106.312 8.30979 106.478 8.91003 106.81 9.41237C107.151 9.90619 107.585 10.3191 108.113 10.6512C108.641 10.9747 109.194 11.2429 109.773 11.4557C110.352 11.6601 110.884 11.8261 111.37 11.9538L114.026 12.669C114.707 12.8478 115.465 13.0947 116.299 13.4097C117.142 13.7248 117.947 14.1547 118.713 14.6996C119.488 15.236 120.126 15.9257 120.629 16.7686C121.131 17.6115 121.382 18.6459 121.382 19.872C121.382 21.2853 121.012 22.5624 120.271 23.7033C119.539 24.8442 118.466 25.751 117.053 26.4236C115.648 27.0962 113.941 27.4325 111.931 27.4325C110.058 27.4325 108.436 27.1303 107.066 26.5258C105.703 25.9213 104.631 25.0783 103.847 23.997C103.073 22.9157 102.634 21.6599 102.532 20.2296H105.801C105.886 21.2172 106.219 22.0345 106.797 22.6816C107.385 23.3202 108.126 23.797 109.02 24.112C109.922 24.4185 110.893 24.5717 111.931 24.5717C113.14 24.5717 114.226 24.3759 115.188 23.9843C116.15 23.5841 116.912 23.0307 117.474 22.324C118.036 21.6088 118.317 20.7745 118.317 19.8209C118.317 18.9524 118.074 18.2458 117.589 17.7009C117.104 17.156 116.465 16.7132 115.673 16.3727C114.882 16.0321 114.026 15.7341 113.106 15.4787L109.888 14.5591C107.845 13.9717 106.227 13.133 105.035 12.0432C103.843 10.9534 103.247 9.5273 103.247 7.76488C103.247 6.30045 103.643 5.02334 104.435 3.93353C105.235 2.83521 106.308 1.98379 107.653 1.37929C109.007 0.766271 110.518 0.459763 112.187 0.459763C113.873 0.459763 115.371 0.762014 116.682 1.36652C117.994 1.9625 119.032 2.77987 119.799 3.81859C120.573 4.85731 120.982 6.03651 121.025 7.3562H117.959Z" fill="#23499A"/>
<path d="M134.15 27.3814C132.379 27.3814 130.825 26.96 129.489 26.1171C128.16 25.2742 127.122 24.095 126.372 22.5794C125.632 21.0639 125.261 19.293 125.261 17.2666C125.261 15.2232 125.632 13.4395 126.372 11.9155C127.122 10.3915 128.16 9.20802 129.489 8.36513C130.825 7.52223 132.379 7.10078 134.15 7.10078C135.921 7.10078 137.471 7.52223 138.799 8.36513C140.136 9.20802 141.174 10.3915 141.915 11.9155C142.664 13.4395 143.039 15.2232 143.039 17.2666C143.039 19.293 142.664 21.0639 141.915 22.5794C141.174 24.095 140.136 25.2742 138.799 26.1171C137.471 26.96 135.921 27.3814 134.15 27.3814ZM134.15 24.6739C135.495 24.6739 136.602 24.3291 137.471 23.6395C138.339 22.9498 138.982 22.0431 139.399 20.9192C139.816 19.7953 140.025 18.5778 140.025 17.2666C140.025 15.9555 139.816 14.7337 139.399 13.6013C138.982 12.4689 138.339 11.5537 137.471 10.8555C136.602 10.1573 135.495 9.80827 134.15 9.80827C132.805 9.80827 131.698 10.1573 130.83 10.8555C129.961 11.5537 129.318 12.4689 128.901 13.6013C128.484 14.7337 128.275 15.9555 128.275 17.2666C128.275 18.5778 128.484 19.7953 128.901 20.9192C129.318 22.0431 129.961 22.9498 130.83 23.6395C131.698 24.3291 132.805 24.6739 134.15 24.6739Z" fill="#23499A"/>
<path d="M155.609 27.3814C153.77 27.3814 152.186 26.9472 150.858 26.0788C149.53 25.2103 148.508 24.0141 147.793 22.4901C147.078 20.966 146.72 19.2249 146.72 17.2666C146.72 15.2743 147.086 13.5162 147.819 11.9921C148.559 10.4596 149.589 9.26337 150.909 8.40344C152.237 7.535 153.787 7.10078 155.558 7.10078C156.937 7.10078 158.18 7.3562 159.287 7.86705C160.394 8.3779 161.301 9.09308 162.007 10.0126C162.714 10.9321 163.152 12.0049 163.323 13.2309H160.309C160.079 12.337 159.568 11.5451 158.776 10.8555C157.993 10.1573 156.937 9.80827 155.609 9.80827C154.434 9.80827 153.404 10.1148 152.518 10.7278C151.641 11.3323 150.956 12.188 150.462 13.2948C149.977 14.3931 149.734 15.683 149.734 17.1645C149.734 18.68 149.973 19.9997 150.449 21.1235C150.935 22.2474 151.616 23.1201 152.493 23.7416C153.378 24.3632 154.417 24.6739 155.609 24.6739C156.392 24.6739 157.103 24.5377 157.742 24.2653C158.38 23.9928 158.921 23.6011 159.364 23.0903C159.806 22.5795 160.121 21.9664 160.309 21.2513H163.323C163.152 22.4092 162.731 23.4521 162.058 24.3802C161.394 25.2997 160.513 26.0319 159.415 26.5768C158.325 27.1132 157.056 27.3814 155.609 27.3814Z" fill="#23499A"/>
<path d="M167.729 26.9727V7.3562H170.743V26.9727H167.729ZM169.261 4.08678C168.674 4.08678 168.167 3.88671 167.742 3.48654C167.324 3.08638 167.116 2.60533 167.116 2.0434C167.116 1.48146 167.324 1.00041 167.742 0.60025C168.167 0.200087 168.674 0 169.261 0C169.849 0 170.351 0.200087 170.768 0.60025C171.194 1.00041 171.407 1.48146 171.407 2.0434C171.407 2.60533 171.194 3.08638 170.768 3.48654C170.351 3.88671 169.849 4.08678 169.261 4.08678Z" fill="#23499A"/>
<path d="M182.036 27.4325C180.793 27.4325 179.665 27.1983 178.651 26.7301C177.638 26.2533 176.834 25.5679 176.238 24.6739C175.642 23.7714 175.344 22.6816 175.344 21.4045C175.344 20.2806 175.565 19.3696 176.008 18.6715C176.45 17.9648 177.042 17.4114 177.783 17.0112C178.524 16.6111 179.341 16.3131 180.235 16.1172C181.137 15.9129 182.044 15.7511 182.955 15.6319C184.147 15.4787 185.114 15.3637 185.854 15.2871C186.604 15.202 187.148 15.0615 187.489 14.8657C187.838 14.6698 188.013 14.3293 188.013 13.844V13.7418C188.013 12.4817 187.668 11.5026 186.978 10.8044C186.297 10.1063 185.263 9.75719 183.875 9.75719C182.436 9.75719 181.308 10.0722 180.49 10.7023C179.673 11.3323 179.098 12.0049 178.766 12.7201L175.906 11.6984C176.416 10.5064 177.097 9.57839 177.949 8.91429C178.809 8.24168 179.745 7.7734 180.759 7.50946C181.78 7.23701 182.785 7.10078 183.773 7.10078C184.403 7.10078 185.126 7.1774 185.944 7.33066C186.77 7.4754 187.566 7.77765 188.332 8.23741C189.107 8.69718 189.749 9.39108 190.26 10.3191C190.771 11.2472 191.027 12.4902 191.027 14.0483V26.9727H188.013V24.3163H187.859C187.655 24.7421 187.314 25.1976 186.838 25.6829C186.361 26.1682 185.727 26.5811 184.935 26.9217C184.143 27.2622 183.177 27.4325 182.036 27.4325ZM182.495 24.725C183.687 24.725 184.692 24.4909 185.509 24.0226C186.335 23.5543 186.957 22.9498 187.374 22.2091C187.8 21.4683 188.013 20.6893 188.013 19.872V17.1134C187.885 17.2666 187.604 17.4071 187.17 17.5348C186.744 17.654 186.25 17.7605 185.688 17.8541C185.135 17.9393 184.594 18.0159 184.066 18.084C183.547 18.1436 183.125 18.1947 182.802 18.2372C182.019 18.3394 181.286 18.5054 180.605 18.7353C179.933 18.9567 179.388 19.293 178.971 19.7442C178.562 20.187 178.358 20.7915 178.358 21.5578C178.358 22.605 178.745 23.3968 179.52 23.9332C180.303 24.4611 181.295 24.725 182.495 24.725Z" fill="#23499A"/>
<path d="M199.542 0.817352V26.9727H196.528V0.817352H199.542Z" fill="#23499A"/>
<path d="M233.465 8.99092C233.184 8.13099 232.814 7.36047 232.354 6.67934C231.903 5.98969 231.362 5.40222 230.732 4.91692C230.111 4.43161 229.404 4.06124 228.612 3.80582C227.82 3.55039 226.952 3.42268 226.007 3.42268C224.457 3.42268 223.048 3.82284 221.78 4.62317C220.511 5.4235 219.502 6.6027 218.753 8.16078C218.004 9.71887 217.629 11.6303 217.629 13.8951C217.629 16.1598 218.008 18.0712 218.766 19.6293C219.523 21.1874 220.549 22.3666 221.843 23.1669C223.138 23.9673 224.594 24.3674 226.211 24.3674C227.71 24.3674 229.029 24.0481 230.17 23.4096C231.32 22.7625 232.214 21.8515 232.852 20.6765C233.499 19.4931 233.823 18.101 233.823 16.5004L234.793 16.7047H226.926V13.8951H236.888V16.7047C236.888 18.8588 236.428 20.7319 235.509 22.324C234.598 23.9162 233.338 25.1507 231.728 26.0277C230.128 26.8961 228.289 27.3303 226.211 27.3303C223.895 27.3303 221.86 26.7854 220.107 25.6956C218.361 24.6058 216.999 23.0562 216.02 21.0469C215.049 19.0376 214.564 16.6536 214.564 13.8951C214.564 11.8261 214.841 9.96578 215.394 8.31404C215.956 6.65379 216.748 5.24044 217.769 4.07401C218.791 2.90757 220 2.01359 221.396 1.39206C222.793 0.770528 224.33 0.459763 226.007 0.459763C227.386 0.459763 228.672 0.668364 229.864 1.08556C231.064 1.49423 232.133 2.07745 233.069 2.83521C234.014 3.58445 234.802 4.48269 235.432 5.52992C236.062 6.56865 236.496 7.72232 236.735 8.99092H233.465Z" fill="#23499A"/>
<path d="M241.904 26.9727V7.3562H244.816V10.3191H245.02C245.378 9.34851 246.025 8.56096 246.961 7.95645C247.898 7.35195 248.953 7.0497 250.128 7.0497C250.35 7.0497 250.627 7.05396 250.959 7.06247C251.291 7.07098 251.542 7.08376 251.712 7.10078V10.1659C251.61 10.1403 251.376 10.102 251.01 10.0509C250.652 9.99132 250.273 9.96152 249.873 9.96152C248.919 9.96152 248.068 10.1616 247.319 10.5618C246.578 10.9534 245.991 11.4983 245.556 12.1965C245.131 12.8861 244.918 13.6737 244.918 14.5591V26.9727H241.904Z" fill="#23499A"/>
<path d="M262.657 27.3814C260.886 27.3814 259.332 26.96 257.995 26.1171C256.667 25.2742 255.629 24.095 254.879 22.5794C254.139 21.0639 253.768 19.293 253.768 17.2666C253.768 15.2232 254.139 13.4395 254.879 11.9155C255.629 10.3915 256.667 9.20802 257.995 8.36513C259.332 7.52223 260.886 7.10078 262.657 7.10078C264.428 7.10078 265.977 7.52223 267.306 8.36513C268.642 9.20802 269.681 10.3915 270.422 11.9155C271.171 13.4395 271.546 15.2232 271.546 17.2666C271.546 19.293 271.171 21.0639 270.422 22.5794C269.681 24.095 268.642 25.2742 267.306 26.1171C265.977 26.96 264.428 27.3814 262.657 27.3814ZM262.657 24.6739C264.002 24.6739 265.109 24.3291 265.977 23.6395C266.846 22.9498 267.489 22.0431 267.906 20.9192C268.323 19.7953 268.532 18.5778 268.532 17.2666C268.532 15.9555 268.323 14.7337 267.906 13.6013C267.489 12.4689 266.846 11.5537 265.977 10.8555C265.109 10.1573 264.002 9.80827 262.657 9.80827C261.312 9.80827 260.205 10.1573 259.336 10.8555C258.468 11.5537 257.825 12.4689 257.408 13.6013C256.991 14.7337 256.782 15.9555 256.782 17.2666C256.782 18.5778 256.991 19.7953 257.408 20.9192C257.825 22.0431 258.468 22.9498 259.336 23.6395C260.205 24.3291 261.312 24.6739 262.657 24.6739Z" fill="#23499A"/>
<path d="M288.509 18.9524V7.3562H291.523V26.9727H288.509V23.6522H288.305C287.845 24.6484 287.13 25.4955 286.159 26.1937C285.189 26.8833 283.962 27.2281 282.481 27.2281C281.255 27.2281 280.165 26.96 279.212 26.4236C278.258 25.8787 277.509 25.0613 276.964 23.9715C276.419 22.8732 276.147 21.4896 276.147 19.8209V7.3562H279.161V19.6165C279.161 21.0469 279.561 22.1878 280.361 23.0392C281.17 23.8906 282.2 24.3163 283.452 24.3163C284.201 24.3163 284.963 24.1248 285.738 23.7416C286.521 23.3585 287.177 22.771 287.704 21.9792C288.241 21.1874 288.509 20.1785 288.509 18.9524Z" fill="#23499A"/>
<path d="M297.043 34.3289V7.3562H299.955V10.4724H300.313C300.534 10.1318 300.841 9.69758 301.232 9.16971C301.632 8.63332 302.203 8.15653 302.944 7.73933C303.693 7.31363 304.706 7.10078 305.983 7.10078C307.635 7.10078 309.091 7.51372 310.351 8.33958C311.611 9.16545 312.594 10.3361 313.301 11.8517C314.008 13.3672 314.361 15.1551 314.361 17.2156C314.361 19.293 314.008 21.0937 313.301 22.6178C312.594 24.1333 311.615 25.3082 310.364 26.1426C309.112 26.9685 307.669 27.3814 306.034 27.3814C304.774 27.3814 303.765 27.1728 303.008 26.7556C302.25 26.3299 301.667 25.8489 301.258 25.3125C300.849 24.7676 300.534 24.3163 300.313 23.9587H300.057V34.3289H297.043ZM300.006 17.1645C300.006 18.6459 300.223 19.9529 300.658 21.0852C301.092 22.2091 301.726 23.0903 302.561 23.7289C303.395 24.3589 304.417 24.6739 305.626 24.6739C306.886 24.6739 307.937 24.3419 308.78 23.6778C309.632 23.0051 310.27 22.1027 310.696 20.9703C311.13 19.8294 311.347 18.5608 311.347 17.1645C311.347 15.7852 311.134 14.5421 310.709 13.4353C310.291 12.3199 309.657 11.4387 308.806 10.7917C307.963 10.1361 306.903 9.80827 305.626 9.80827C304.4 9.80827 303.369 10.119 302.535 10.7406C301.701 11.3536 301.071 12.2135 300.645 13.3203C300.219 14.4187 300.006 15.7 300.006 17.1645Z" fill="#23499A"/>
<path d="M332.854 11.7495L330.146 12.5158C329.976 12.0645 329.725 11.626 329.393 11.2003C329.069 10.7661 328.627 10.4085 328.065 10.1275C327.503 9.84658 326.783 9.7061 325.906 9.7061C324.706 9.7061 323.705 9.98281 322.905 10.5362C322.113 11.0811 321.717 11.775 321.717 12.6179C321.717 13.3672 321.99 13.9589 322.535 14.3931C323.08 14.8273 323.931 15.1892 325.089 15.4787L328.001 16.1939C329.755 16.6196 331.062 17.2709 331.921 18.1479C332.781 19.0163 333.211 20.1359 333.211 21.5067C333.211 22.6305 332.888 23.6352 332.241 24.5207C331.602 25.4061 330.708 26.1043 329.559 26.6151C328.409 27.126 327.073 27.3814 325.549 27.3814C323.548 27.3814 321.892 26.9472 320.581 26.0788C319.269 25.2103 318.439 23.9417 318.09 22.2729L320.951 21.5578C321.223 22.6135 321.739 23.4053 322.496 23.9332C323.263 24.4611 324.263 24.725 325.498 24.725C326.902 24.725 328.018 24.427 328.844 23.831C329.678 23.2265 330.095 22.5028 330.095 21.6599C330.095 20.9788 329.857 20.4084 329.38 19.9486C328.903 19.4803 328.171 19.1312 327.183 18.9014L323.914 18.1351C322.117 17.7094 320.798 17.0495 319.955 16.1555C319.12 15.2531 318.703 14.1249 318.703 12.7712C318.703 11.6643 319.014 10.6852 319.636 9.83382C320.266 8.9824 321.121 8.31404 322.203 7.82874C323.292 7.34343 324.527 7.10078 325.906 7.10078C327.847 7.10078 329.371 7.52649 330.478 8.3779C331.594 9.22931 332.385 10.3532 332.854 11.7495Z" fill="#23499A"/>
<path d="M61.7104 44.8174V70.9727H58.5432V44.8174H61.7104Z" fill="#23499A"/>
<path d="M70.6662 59.1722V70.9727H67.6522V51.3562H70.564V54.4213H70.8195C71.2792 53.4251 71.9774 52.6248 72.9139 52.0203C73.8505 51.4073 75.0595 51.1008 76.541 51.1008C77.8692 51.1008 79.0313 51.3732 80.0275 51.9181C81.0236 52.4545 81.7984 53.2719 82.3519 54.3702C82.9053 55.46 83.182 56.8393 83.182 58.5081V70.9727H80.168V58.7124C80.168 57.1713 79.7678 55.9709 78.9675 55.1109C78.1672 54.2425 77.0688 53.8083 75.6725 53.8083C74.7104 53.8083 73.8505 54.0169 73.0927 54.4341C72.3435 54.8512 71.7518 55.46 71.3176 56.2603C70.8833 57.0607 70.6662 58.0313 70.6662 59.1722Z" fill="#23499A"/>
<path d="M97.2207 51.3562V53.9104H87.0548V51.3562H97.2207ZM90.0177 46.6564H93.0317V65.3534C93.0317 66.2048 93.1552 66.8434 93.4021 67.2691C93.6575 67.6863 93.9811 67.9673 94.3727 68.112C94.7729 68.2482 95.1943 68.3163 95.6371 68.3163C95.9691 68.3163 96.2416 68.2993 96.4544 68.2653C96.6673 68.2227 96.8376 68.1886 96.9653 68.1631L97.5783 70.8706C97.3739 70.9472 97.0887 71.0238 96.7226 71.1004C96.3565 71.1856 95.8925 71.2281 95.3306 71.2281C94.4791 71.2281 93.6448 71.0451 92.8274 70.679C92.0186 70.3129 91.346 69.7552 90.8096 69.006C90.2817 68.2567 90.0177 67.3117 90.0177 66.1708V46.6564Z" fill="#23499A"/>
<path d="M103.951 71.1771C103.321 71.1771 102.78 70.9515 102.329 70.5002C101.878 70.049 101.652 69.5083 101.652 68.8783C101.652 68.2482 101.878 67.7076 102.329 67.2563C102.78 66.8051 103.321 66.5794 103.951 66.5794C104.581 66.5794 105.122 66.8051 105.573 67.2563C106.024 67.7076 106.25 68.2482 106.25 68.8783C106.25 69.2955 106.143 69.6786 105.931 70.0277C105.726 70.3768 105.45 70.6577 105.101 70.8706C104.76 71.0749 104.377 71.1771 103.951 71.1771Z" fill="#23499A"/>
<path d="M122.182 70.9727V44.8174H137.865V47.627H125.349V56.4647H136.69V59.2743H125.349V70.9727H122.182Z" fill="#23499A"/>
<path d="M149.666 71.3814C147.775 71.3814 146.145 70.9642 144.774 70.1299C143.412 69.287 142.36 68.112 141.62 66.605C140.887 65.0895 140.521 63.3271 140.521 61.3177C140.521 59.3084 140.887 57.5375 141.62 56.0049C142.36 54.4639 143.391 53.2634 144.71 52.4034C146.039 51.535 147.588 51.1008 149.359 51.1008C150.381 51.1008 151.39 51.2711 152.386 51.6116C153.382 51.9522 154.289 52.5056 155.106 53.2719C155.923 54.0296 156.575 55.0343 157.06 56.2859C157.545 57.5375 157.788 59.0785 157.788 60.9091V62.1862H142.667V59.5808H154.723C154.723 58.474 154.502 57.4864 154.059 56.6179C153.625 55.7495 153.003 55.0641 152.194 54.5618C151.394 54.0594 150.449 53.8083 149.359 53.8083C148.159 53.8083 147.12 54.1063 146.243 54.7022C145.374 55.2897 144.706 56.056 144.238 57.0011C143.77 57.9461 143.535 58.9593 143.535 60.0406V61.7775C143.535 63.259 143.791 64.5148 144.302 65.545C144.821 66.5667 145.54 67.3457 146.46 67.8821C147.38 68.41 148.448 68.6739 149.666 68.6739C150.457 68.6739 151.173 68.5632 151.811 68.3419C152.458 68.112 153.016 67.7714 153.484 67.3202C153.952 66.8604 154.314 66.29 154.57 65.6088L157.482 66.4262C157.175 67.4138 156.66 68.2823 155.936 69.0315C155.212 69.7723 154.319 70.3512 153.254 70.7684C152.19 71.1771 150.994 71.3814 149.666 71.3814Z" fill="#23499A"/>
<path d="M169.78 71.3814C168.145 71.3814 166.702 70.9685 165.451 70.1426C164.199 69.3082 163.22 68.1333 162.513 66.6178C161.807 65.0937 161.453 63.293 161.453 61.2155C161.453 59.1551 161.807 57.3672 162.513 55.8517C163.22 54.3361 164.203 53.1655 165.463 52.3396C166.724 51.5137 168.179 51.1008 169.831 51.1008C171.108 51.1008 172.117 51.3136 172.858 51.7393C173.607 52.1565 174.178 52.6333 174.569 53.1697C174.969 53.6976 175.28 54.1318 175.502 54.4724H175.757V44.8174H178.771V70.9727H175.859V67.9587H175.502C175.28 68.3163 174.965 68.7676 174.557 69.3125C174.148 69.8489 173.565 70.3299 172.807 70.7556C172.049 71.1728 171.04 71.3814 169.78 71.3814ZM170.189 68.6739C171.398 68.6739 172.42 68.3589 173.254 67.7289C174.088 67.0903 174.723 66.2091 175.157 65.0852C175.591 63.9529 175.808 62.6459 175.808 61.1645C175.808 59.7 175.595 58.4187 175.17 57.3203C174.744 56.2135 174.114 55.3536 173.279 54.7406C172.445 54.119 171.415 53.8083 170.189 53.8083C168.912 53.8083 167.847 54.1361 166.996 54.7917C166.153 55.4387 165.519 56.3199 165.093 57.4353C164.676 58.5421 164.467 59.7852 164.467 61.1645C164.467 62.5608 164.68 63.8294 165.106 64.9703C165.54 66.1027 166.179 67.0051 167.022 67.6778C167.873 68.3419 168.929 68.6739 170.189 68.6739Z" fill="#23499A"/>
<path d="M192.934 71.3814C191.044 71.3814 189.414 70.9642 188.043 70.1299C186.681 69.287 185.629 68.112 184.888 66.605C184.156 65.0895 183.79 63.3271 183.79 61.3177C183.79 59.3084 184.156 57.5375 184.888 56.0049C185.629 54.4639 186.659 53.2634 187.979 52.4034C189.307 51.535 190.857 51.1008 192.628 51.1008C193.649 51.1008 194.658 51.2711 195.655 51.6116C196.651 51.9522 197.557 52.5056 198.375 53.2719C199.192 54.0296 199.844 55.0343 200.329 56.2859C200.814 57.5375 201.057 59.0785 201.057 60.9091V62.1862H185.936V59.5808H197.992C197.992 58.474 197.77 57.4864 197.328 56.6179C196.893 55.7495 196.272 55.0641 195.463 54.5618C194.663 54.0594 193.718 53.8083 192.628 53.8083C191.427 53.8083 190.389 54.1063 189.512 54.7022C188.643 55.2897 187.975 56.056 187.507 57.0011C187.038 57.9461 186.804 58.9593 186.804 60.0406V61.7775C186.804 63.259 187.06 64.5148 187.57 65.545C188.09 66.5667 188.809 67.3457 189.729 67.8821C190.648 68.41 191.717 68.6739 192.934 68.6739C193.726 68.6739 194.441 68.5632 195.08 68.3419C195.727 68.112 196.285 67.7714 196.753 67.3202C197.221 66.8604 197.583 66.29 197.838 65.6088L200.75 66.4262C200.444 67.4138 199.929 68.2823 199.205 69.0315C198.481 69.7723 197.587 70.3512 196.523 70.7684C195.459 71.1771 194.262 71.3814 192.934 71.3814Z" fill="#23499A"/>
<path d="M205.642 70.9727V51.3562H208.553V54.3191H208.758C209.115 53.3485 209.762 52.561 210.699 51.9565C211.636 51.3519 212.691 51.0497 213.866 51.0497C214.088 51.0497 214.364 51.054 214.696 51.0625C215.028 51.071 215.28 51.0837 215.45 51.1008V54.1659C215.348 54.1403 215.114 54.102 214.747 54.0509C214.39 53.9913 214.011 53.9615 213.611 53.9615C212.657 53.9615 211.806 54.1616 211.057 54.5618C210.316 54.9534 209.728 55.4983 209.294 56.1965C208.868 56.8861 208.656 57.6737 208.656 58.5591V70.9727H205.642Z" fill="#23499A"/>
<path d="M224.795 71.4325C223.552 71.4325 222.424 71.1983 221.411 70.7301C220.398 70.2533 219.593 69.5679 218.997 68.6739C218.401 67.7714 218.103 66.6816 218.103 65.4045C218.103 64.2806 218.324 63.3696 218.767 62.6715C219.21 61.9648 219.802 61.4114 220.542 61.0112C221.283 60.6111 222.1 60.3131 222.994 60.1172C223.897 59.9129 224.804 59.7511 225.715 59.6319C226.907 59.4787 227.873 59.3637 228.614 59.2871C229.363 59.202 229.908 59.0615 230.248 58.8657C230.598 58.6698 230.772 58.3293 230.772 57.844V57.7418C230.772 56.4817 230.427 55.5026 229.738 54.8044C229.057 54.1063 228.022 53.7572 226.634 53.7572C225.195 53.7572 224.067 54.0722 223.25 54.7022C222.433 55.3323 221.858 56.0049 221.526 56.7201L218.665 55.6984C219.176 54.5064 219.857 53.5784 220.708 52.9143C221.568 52.2417 222.505 51.7734 223.518 51.5095C224.54 51.237 225.544 51.1008 226.532 51.1008C227.162 51.1008 227.886 51.1774 228.703 51.3307C229.529 51.4754 230.325 51.7777 231.091 52.2374C231.866 52.6972 232.509 53.3911 233.02 54.3191C233.531 55.2472 233.786 56.4902 233.786 58.0483V70.9727H230.772V68.3163H230.619C230.415 68.7421 230.074 69.1976 229.597 69.6829C229.12 70.1682 228.486 70.5811 227.694 70.9217C226.902 71.2622 225.936 71.4325 224.795 71.4325ZM225.255 68.725C226.447 68.725 227.452 68.4909 228.269 68.0226C229.095 67.5543 229.716 66.9498 230.134 66.2091C230.559 65.4683 230.772 64.6893 230.772 63.8719V61.1134C230.644 61.2666 230.363 61.4071 229.929 61.5348C229.503 61.654 229.01 61.7605 228.448 61.8541C227.894 61.9393 227.354 62.0159 226.826 62.084C226.306 62.1436 225.885 62.1947 225.561 62.2372C224.778 62.3394 224.046 62.5054 223.365 62.7353C222.692 62.9567 222.147 63.293 221.73 63.7443C221.321 64.187 221.117 64.7915 221.117 65.5578C221.117 66.605 221.504 67.3968 222.279 67.9332C223.063 68.4611 224.054 68.725 225.255 68.725Z" fill="#23499A"/>
<path d="M247.818 51.3562V53.9104H237.653V51.3562H247.818ZM240.615 46.6564H243.629V65.3534C243.629 66.2048 243.753 66.8434 244 67.2691C244.255 67.6863 244.579 67.9673 244.97 68.112C245.371 68.2482 245.792 68.3163 246.235 68.3163C246.567 68.3163 246.839 68.2993 247.052 68.2653C247.265 68.2227 247.435 68.1886 247.563 68.1631L248.176 70.8706C247.972 70.9472 247.686 71.0238 247.32 71.1004C246.954 71.1856 246.49 71.2281 245.928 71.2281C245.077 71.2281 244.243 71.0451 243.425 70.679C242.616 70.3129 241.944 69.7552 241.407 69.006C240.879 68.2567 240.615 67.3117 240.615 66.1708V46.6564Z" fill="#23499A"/>
<path d="M252.352 70.9727V51.3562H255.366V70.9727H252.352ZM253.885 48.0868C253.297 48.0868 252.791 47.8867 252.365 47.4865C251.948 47.0864 251.739 46.6053 251.739 46.0434C251.739 45.4815 251.948 45.0004 252.365 44.6003C252.791 44.2001 253.297 44 253.885 44C254.472 44 254.975 44.2001 255.392 44.6003C255.817 45.0004 256.03 45.4815 256.03 46.0434C256.03 46.6053 255.817 47.0864 255.392 47.4865C254.975 47.8867 254.472 48.0868 253.885 48.0868Z" fill="#23499A"/>
<path d="M268.856 71.3814C267.085 71.3814 265.531 70.96 264.194 70.1171C262.866 69.2742 261.827 68.095 261.078 66.5794C260.337 65.0639 259.967 63.293 259.967 61.2666C259.967 59.2232 260.337 57.4396 261.078 55.9155C261.827 54.3915 262.866 53.208 264.194 52.3651C265.531 51.5222 267.085 51.1008 268.856 51.1008C270.627 51.1008 272.176 51.5222 273.504 52.3651C274.841 53.208 275.88 54.3915 276.621 55.9155C277.37 57.4396 277.745 59.2232 277.745 61.2666C277.745 63.293 277.37 65.0639 276.621 66.5794C275.88 68.095 274.841 69.2742 273.504 70.1171C272.176 70.96 270.627 71.3814 268.856 71.3814ZM268.856 68.6739C270.201 68.6739 271.308 68.3291 272.176 67.6395C273.045 66.9498 273.688 66.0431 274.105 64.9192C274.522 63.7953 274.731 62.5778 274.731 61.2666C274.731 59.9555 274.522 58.7337 274.105 57.6013C273.688 56.4689 273.045 55.5537 272.176 54.8555C271.308 54.1573 270.201 53.8083 268.856 53.8083C267.511 53.8083 266.404 54.1573 265.535 54.8555C264.667 55.5537 264.024 56.4689 263.607 57.6013C263.19 58.7337 262.981 59.9555 262.981 61.2666C262.981 62.5778 263.19 63.7953 263.607 64.9192C264.024 66.0431 264.667 66.9498 265.535 67.6395C266.404 68.3291 267.511 68.6739 268.856 68.6739Z" fill="#23499A"/>
<path d="M285.359 59.1722V70.9727H282.345V51.3562H285.257V54.4213H285.513C285.972 53.4251 286.671 52.6248 287.607 52.0203C288.544 51.4073 289.753 51.1008 291.234 51.1008C292.562 51.1008 293.724 51.3732 294.721 51.9181C295.717 52.4545 296.492 53.2719 297.045 54.3702C297.598 55.46 297.875 56.8393 297.875 58.5081V70.9727H294.861V58.7124C294.861 57.1713 294.461 55.9709 293.661 55.1109C292.86 54.2425 291.762 53.8083 290.366 53.8083C289.404 53.8083 288.544 54.0169 287.786 54.4341C287.037 54.8512 286.445 55.46 286.011 56.2603C285.576 57.0607 285.359 58.0313 285.359 59.1722Z" fill="#23499A"/>
<path d="M33.9414 91.6555C33.7882 91.1589 33.5767 90.7146 33.307 90.3223C33.0434 89.9238 32.7247 89.5836 32.3508 89.3017C31.983 89.0197 31.56 88.8082 31.0819 88.6672C30.6038 88.5201 30.0828 88.4466 29.5188 88.4466C28.5074 88.4466 27.6063 88.7009 26.8156 89.2097C26.0249 89.7185 25.4027 90.4663 24.9491 91.4532C24.5016 92.4339 24.2779 93.6293 24.2779 95.0391C24.2779 96.4612 24.5016 97.6657 24.9491 98.6526C25.3966 99.6394 26.0187 100.39 26.8156 100.905C27.6125 101.414 28.5381 101.668 29.5924 101.668C30.5486 101.668 31.3761 101.484 32.0749 101.117C32.7798 100.749 33.3223 100.228 33.7024 99.5536C34.0824 98.8732 34.2724 98.0764 34.2724 97.163L35.0448 97.2826H29.9326V94.6161H37.5733V96.878C37.5733 98.4901 37.23 99.8846 36.5435 101.062C35.857 102.238 34.913 103.146 33.7116 103.783C32.5101 104.415 31.1309 104.73 29.574 104.73C27.8393 104.73 26.316 104.341 25.0043 103.562C23.6986 102.778 22.678 101.665 21.9425 100.225C21.213 98.7782 20.8483 97.0619 20.8483 95.0759C20.8483 93.5557 21.0629 92.198 21.4919 91.0027C21.9272 89.8074 22.534 88.7929 23.3125 87.9592C24.0909 87.1195 25.0043 86.482 26.0525 86.0468C27.1006 85.6054 28.2408 85.3848 29.4729 85.3848C30.5149 85.3848 31.4865 85.538 32.3875 85.8445C33.2886 86.1448 34.0885 86.5739 34.7873 87.1317C35.4922 87.6895 36.0715 88.3516 36.5251 89.1178C36.9787 89.884 37.276 90.7299 37.417 91.6555H33.9414Z" fill="#1E1E1E"/>
<path d="M40.7247 104.473V90.3498H43.952V92.7036H44.0992C44.3566 91.8884 44.7979 91.2601 45.4232 90.8188C46.0545 90.3713 46.7748 90.1476 47.5839 90.1476C47.7678 90.1476 47.9731 90.1568 48.1999 90.1751C48.4329 90.1874 48.626 90.2089 48.7792 90.2395V93.3013C48.6382 93.2523 48.4145 93.2094 48.108 93.1726C47.8076 93.1297 47.5165 93.1082 47.2345 93.1082C46.6277 93.1082 46.0821 93.24 45.5979 93.5036C45.1198 93.761 44.7428 94.1196 44.4669 94.5793C44.1911 95.0391 44.0532 95.5693 44.0532 96.17V104.473H40.7247Z" fill="#1E1E1E"/>
<path d="M56.5693 104.749C55.1901 104.749 53.9948 104.445 52.9834 103.838C51.972 103.231 51.1874 102.383 50.6296 101.291C50.0779 100.2 49.8021 98.9253 49.8021 97.4665C49.8021 96.0076 50.0779 94.7295 50.6296 93.6323C51.1874 92.5351 51.972 91.683 52.9834 91.0762C53.9948 90.4694 55.1901 90.166 56.5693 90.166C57.9485 90.166 59.1438 90.4694 60.1552 91.0762C61.1666 91.683 61.9482 92.5351 62.4998 93.6323C63.0576 94.7295 63.3365 96.0076 63.3365 97.4665C63.3365 98.9253 63.0576 100.2 62.4998 101.291C61.9482 102.383 61.1666 103.231 60.1552 103.838C59.1438 104.445 57.9485 104.749 56.5693 104.749ZM56.5877 102.082C57.3355 102.082 57.9608 101.877 58.4634 101.466C58.9661 101.049 59.34 100.491 59.5852 99.7927C59.8365 99.0939 59.9621 98.3154 59.9621 97.4572C59.9621 96.593 59.8365 95.8114 59.5852 95.1126C59.34 94.4077 58.9661 93.8468 58.4634 93.43C57.9608 93.0132 57.3355 92.8048 56.5877 92.8048C55.8215 92.8048 55.184 93.0132 54.6752 93.43C54.1726 93.8468 53.7956 94.4077 53.5443 95.1126C53.2991 95.8114 53.1765 96.593 53.1765 97.4572C53.1765 98.3154 53.2991 99.0939 53.5443 99.7927C53.7956 100.491 54.1726 101.049 54.6752 101.466C55.184 101.877 55.8215 102.082 56.5877 102.082Z" fill="#1E1E1E"/>
<path d="M68.6717 104.473L64.6813 90.3498H68.0741L70.5566 100.28H70.6853L73.223 90.3498H76.5791L79.1168 100.225H79.2547L81.7005 90.3498H85.1025L81.1028 104.473H77.6364L74.9884 94.9287H74.7953L72.1473 104.473H68.6717Z" fill="#1E1E1E"/>
<path d="M93.8488 104.473V90.3498H97.0301V92.7496H97.1956C97.4899 91.9405 97.9772 91.3091 98.6576 90.8555C99.338 90.3958 100.15 90.166 101.094 90.166C102.05 90.166 102.856 90.3989 103.512 90.8647C104.174 91.3245 104.64 91.9528 104.91 92.7496H105.057C105.37 91.965 105.897 91.3398 106.638 90.8739C107.386 90.4019 108.272 90.166 109.296 90.166C110.595 90.166 111.656 90.5766 112.477 91.398C113.298 92.2194 113.709 93.4178 113.709 94.9931V104.473H110.372V95.508C110.372 94.6314 110.139 93.9909 109.673 93.5863C109.207 93.1756 108.637 92.9703 107.963 92.9703C107.16 92.9703 106.531 93.2216 106.078 93.7242C105.63 94.2208 105.406 94.8674 105.406 95.6643V104.473H102.142V95.3701C102.142 94.6406 101.922 94.0583 101.48 93.6231C101.045 93.1879 100.475 92.9703 99.7701 92.9703C99.292 92.9703 98.8568 93.0929 98.4645 93.3381C98.0722 93.5771 97.7596 93.9173 97.5266 94.3587C97.2937 94.7939 97.1773 95.3027 97.1773 95.885V104.473H93.8488Z" fill="#1E1E1E"/>
<path d="M123.246 104.749C121.867 104.749 120.672 104.445 119.66 103.838C118.649 103.231 117.864 102.383 117.307 101.291C116.755 100.2 116.479 98.9253 116.479 97.4665C116.479 96.0076 116.755 94.7295 117.307 93.6323C117.864 92.5351 118.649 91.683 119.66 91.0762C120.672 90.4694 121.867 90.166 123.246 90.166C124.625 90.166 125.821 90.4694 126.832 91.0762C127.844 91.683 128.625 92.5351 129.177 93.6323C129.735 94.7295 130.013 96.0076 130.013 97.4665C130.013 98.9253 129.735 100.2 129.177 101.291C128.625 102.383 127.844 103.231 126.832 103.838C125.821 104.445 124.625 104.749 123.246 104.749ZM123.265 102.082C124.012 102.082 124.638 101.877 125.14 101.466C125.643 101.049 126.017 100.491 126.262 99.7927C126.513 99.0939 126.639 98.3154 126.639 97.4572C126.639 96.593 126.513 95.8114 126.262 95.1126C126.017 94.4077 125.643 93.8468 125.14 93.43C124.638 93.0132 124.012 92.8048 123.265 92.8048C122.498 92.8048 121.861 93.0132 121.352 93.43C120.85 93.8468 120.473 94.4077 120.221 95.1126C119.976 95.8114 119.853 96.593 119.853 97.4572C119.853 98.3154 119.976 99.0939 120.221 99.7927C120.473 100.491 120.85 101.049 121.352 101.466C121.861 101.877 122.498 102.082 123.265 102.082Z" fill="#1E1E1E"/>
<path d="M132.839 104.473V90.3498H136.066V92.7036H136.213C136.47 91.8884 136.912 91.2601 137.537 90.8188C138.168 90.3713 138.889 90.1476 139.698 90.1476C139.882 90.1476 140.087 90.1568 140.314 90.1751C140.547 90.1874 140.74 90.2089 140.893 90.2395V93.3013C140.752 93.2523 140.528 93.2094 140.222 93.1726C139.921 93.1297 139.63 93.1082 139.348 93.1082C138.741 93.1082 138.196 93.24 137.712 93.5036C137.234 93.761 136.857 94.1196 136.581 94.5793C136.305 95.0391 136.167 95.5693 136.167 96.17V104.473H132.839Z" fill="#1E1E1E"/>
<path d="M148.775 104.749C147.359 104.749 146.136 104.454 145.106 103.866C144.083 103.271 143.295 102.432 142.743 101.347C142.192 100.255 141.916 98.9713 141.916 97.494C141.916 96.0413 142.192 94.7663 142.743 93.6691C143.301 92.5657 144.08 91.7076 145.079 91.0946C146.078 90.4755 147.252 90.166 148.6 90.166C149.471 90.166 150.292 90.3069 151.064 90.5889C151.843 90.8647 152.529 91.2938 153.124 91.8761C153.725 92.4585 154.197 93.2002 154.54 94.1012C154.883 94.9962 155.055 96.0628 155.055 97.301V98.3216H143.479V96.0781H151.864C151.858 95.4406 151.72 94.8736 151.451 94.3771C151.181 93.8744 150.804 93.4791 150.32 93.191C149.842 92.9029 149.284 92.7588 148.646 92.7588C147.966 92.7588 147.368 92.9243 146.853 93.2553C146.338 93.5802 145.937 94.0093 145.649 94.5426C145.367 95.0697 145.223 95.649 145.217 96.2804V98.2388C145.217 99.0602 145.367 99.7651 145.667 100.354C145.968 100.936 146.387 101.383 146.927 101.696C147.466 102.002 148.098 102.156 148.821 102.156C149.305 102.156 149.744 102.088 150.136 101.953C150.528 101.812 150.868 101.607 151.156 101.337C151.445 101.068 151.662 100.734 151.809 100.335L154.917 100.685C154.721 101.506 154.347 102.223 153.795 102.836C153.25 103.443 152.551 103.915 151.699 104.252C150.847 104.583 149.872 104.749 148.775 104.749Z" fill="#1E1E1E"/>
<path d="M171.345 90.3498V92.9243H163.227V90.3498H171.345ZM165.231 86.9662H168.559V100.225C168.559 100.672 168.627 101.016 168.762 101.255C168.903 101.488 169.087 101.647 169.313 101.733C169.54 101.819 169.792 101.861 170.067 101.861C170.276 101.861 170.466 101.846 170.637 101.815C170.815 101.785 170.95 101.757 171.042 101.733L171.603 104.335C171.425 104.396 171.171 104.464 170.84 104.537C170.515 104.611 170.116 104.654 169.644 104.666C168.811 104.69 168.06 104.565 167.392 104.289C166.724 104.007 166.193 103.572 165.801 102.983C165.415 102.395 165.225 101.659 165.231 100.777V86.9662Z" fill="#1E1E1E"/>
<path d="M180.138 104.749C178.759 104.749 177.563 104.445 176.552 103.838C175.541 103.231 174.756 102.383 174.198 101.291C173.646 100.2 173.371 98.9253 173.371 97.4665C173.371 96.0076 173.646 94.7295 174.198 93.6323C174.756 92.5351 175.541 91.683 176.552 91.0762C177.563 90.4694 178.759 90.166 180.138 90.166C181.517 90.166 182.712 90.4694 183.724 91.0762C184.735 91.683 185.517 92.5351 186.068 93.6323C186.626 94.7295 186.905 96.0076 186.905 97.4665C186.905 98.9253 186.626 100.2 186.068 101.291C185.517 102.383 184.735 103.231 183.724 103.838C182.712 104.445 181.517 104.749 180.138 104.749ZM180.156 102.082C180.904 102.082 181.529 101.877 182.032 101.466C182.535 101.049 182.908 100.491 183.154 99.7927C183.405 99.0939 183.531 98.3154 183.531 97.4572C183.531 96.593 183.405 95.8114 183.154 95.1126C182.908 94.4077 182.535 93.8468 182.032 93.43C181.529 93.0132 180.904 92.8048 180.156 92.8048C179.39 92.8048 178.752 93.0132 178.244 93.43C177.741 93.8468 177.364 94.4077 177.113 95.1126C176.868 95.8114 176.745 96.593 176.745 97.4572C176.745 98.3154 176.868 99.0939 177.113 99.7927C177.364 100.491 177.741 101.049 178.244 101.466C178.752 101.877 179.39 102.082 180.156 102.082Z" fill="#1E1E1E"/>
<path d="M206.533 90.8188C206.447 90.0158 206.086 89.3905 205.448 88.9431C204.817 88.4956 203.995 88.2719 202.984 88.2719C202.273 88.2719 201.663 88.3791 201.154 88.5937C200.646 88.8082 200.256 89.0994 199.987 89.4672C199.717 89.8349 199.579 90.2548 199.573 90.7268C199.573 91.1191 199.662 91.4593 199.84 91.7474C200.023 92.0355 200.272 92.2807 200.584 92.483C200.897 92.6791 201.243 92.8446 201.623 92.9795C202.003 93.1143 202.386 93.2278 202.773 93.3197L204.538 93.761C205.249 93.9265 205.932 94.1503 206.588 94.4323C207.25 94.7142 207.842 95.0697 208.363 95.4988C208.89 95.9279 209.307 96.4459 209.613 97.0527C209.92 97.6595 210.073 98.3706 210.073 99.1859C210.073 100.289 209.791 101.261 209.227 102.101C208.663 102.934 207.848 103.587 206.781 104.059C205.721 104.525 204.437 104.758 202.929 104.758C201.464 104.758 200.192 104.531 199.113 104.077C198.04 103.624 197.201 102.962 196.594 102.091C195.993 101.221 195.668 100.16 195.619 98.91H198.975C199.024 99.5659 199.227 100.111 199.582 100.547C199.938 100.982 200.4 101.307 200.97 101.521C201.547 101.736 202.19 101.843 202.901 101.843C203.643 101.843 204.293 101.733 204.851 101.512C205.415 101.285 205.856 100.973 206.175 100.574C206.493 100.17 206.656 99.6977 206.662 99.1583C206.656 98.6679 206.512 98.2633 206.23 97.9446C205.948 97.6197 205.552 97.35 205.044 97.1354C204.541 96.9148 203.953 96.7186 203.278 96.547L201.136 95.9953C199.585 95.5969 198.359 94.9931 197.458 94.184C196.563 93.3687 196.116 92.2868 196.116 90.9383C196.116 89.8288 196.416 88.8572 197.017 88.0236C197.624 87.1899 198.448 86.5433 199.49 86.0836C200.532 85.6177 201.712 85.3848 203.03 85.3848C204.366 85.3848 205.537 85.6177 206.542 86.0836C207.554 86.5433 208.348 87.1838 208.924 88.0052C209.5 88.8205 209.797 89.7583 209.816 90.8188H206.533Z" fill="#1E1E1E"/>
<path d="M219.219 104.749C217.803 104.749 216.581 104.454 215.551 103.866C214.527 103.271 213.739 102.432 213.188 101.347C212.636 100.255 212.36 98.9713 212.36 97.494C212.36 96.0413 212.636 94.7663 213.188 93.6691C213.746 92.5657 214.524 91.7076 215.523 91.0946C216.522 90.4755 217.696 90.166 219.045 90.166C219.915 90.166 220.737 90.3069 221.509 90.5889C222.287 90.8647 222.974 91.2938 223.568 91.8761C224.169 92.4585 224.641 93.2002 224.984 94.1012C225.328 94.9962 225.499 96.0628 225.499 97.301V98.3216H213.923V96.0781H222.309C222.303 95.4406 222.165 94.8736 221.895 94.3771C221.625 93.8744 221.248 93.4791 220.764 93.191C220.286 92.9029 219.728 92.7588 219.091 92.7588C218.41 92.7588 217.813 92.9243 217.298 93.2553C216.783 93.5802 216.381 94.0093 216.093 94.5426C215.811 95.0697 215.667 95.649 215.661 96.2804V98.2388C215.661 99.0602 215.811 99.7651 216.112 100.354C216.412 100.936 216.832 101.383 217.371 101.696C217.911 102.002 218.542 102.156 219.265 102.156C219.75 102.156 220.188 102.088 220.58 101.953C220.973 101.812 221.313 101.607 221.601 101.337C221.889 101.068 222.107 100.734 222.254 100.335L225.361 100.685C225.165 101.506 224.791 102.223 224.24 102.836C223.694 103.443 222.995 103.915 222.143 104.252C221.291 104.583 220.317 104.749 219.219 104.749Z" fill="#1E1E1E"/>
<path d="M228.315 104.473V90.3498H231.542V92.7036H231.69C231.947 91.8884 232.388 91.2601 233.014 90.8188C233.645 90.3713 234.365 90.1476 235.174 90.1476C235.358 90.1476 235.564 90.1568 235.79 90.1751C236.023 90.1874 236.216 90.2089 236.37 90.2395V93.3013C236.229 93.2523 236.005 93.2094 235.698 93.1726C235.398 93.1297 235.107 93.1082 234.825 93.1082C234.218 93.1082 233.673 93.24 233.188 93.5036C232.71 93.761 232.333 94.1196 232.057 94.5793C231.782 95.0391 231.644 95.5693 231.644 96.17V104.473H228.315Z" fill="#1E1E1E"/>
<path d="M251.626 90.3498L246.596 104.473H242.919L237.889 90.3498H241.438L244.684 100.841H244.831L248.086 90.3498H251.626Z" fill="#1E1E1E"/>
<path d="M259.701 104.749C258.285 104.749 257.062 104.454 256.032 103.866C255.009 103.271 254.221 102.432 253.669 101.347C253.118 100.255 252.842 98.9713 252.842 97.494C252.842 96.0413 253.118 94.7663 253.669 93.6691C254.227 92.5657 255.006 91.7076 256.005 91.0946C257.004 90.4755 258.178 90.166 259.526 90.166C260.397 90.166 261.218 90.3069 261.99 90.5889C262.769 90.8647 263.455 91.2938 264.05 91.8761C264.651 92.4585 265.123 93.2002 265.466 94.1012C265.809 94.9962 265.981 96.0628 265.981 97.301V98.3216H254.405V96.0781H262.79C262.784 95.4406 262.646 94.8736 262.377 94.3771C262.107 93.8744 261.73 93.4791 261.246 93.191C260.767 92.9029 260.21 92.7588 259.572 92.7588C258.892 92.7588 258.294 92.9243 257.779 93.2553C257.264 93.5802 256.863 94.0093 256.575 94.5426C256.293 95.0697 256.149 95.649 256.143 96.2804V98.2388C256.143 99.0602 256.293 99.7651 256.593 100.354C256.893 100.936 257.313 101.383 257.853 101.696C258.392 102.002 259.024 102.156 259.747 102.156C260.231 102.156 260.669 102.088 261.062 101.953C261.454 101.812 261.794 101.607 262.082 101.337C262.37 101.068 262.588 100.734 262.735 100.335L265.843 100.685C265.647 101.506 265.273 102.223 264.721 102.836C264.176 103.443 263.477 103.915 262.625 104.252C261.773 104.583 260.798 104.749 259.701 104.749Z" fill="#1E1E1E"/>
<path d="M275.219 104.473V90.3498H278.4V92.7496H278.566C278.86 91.9405 279.347 91.3091 280.028 90.8555C280.708 90.3958 281.52 90.166 282.464 90.166C283.421 90.166 284.227 90.3989 284.883 90.8647C285.545 91.3245 286.011 91.9528 286.28 92.7496H286.427C286.74 91.965 287.267 91.3398 288.009 90.8739C288.757 90.4019 289.642 90.166 290.666 90.166C291.966 90.166 293.026 90.5766 293.847 91.398C294.669 92.2194 295.079 93.4178 295.079 94.9931V104.473H291.742V95.508C291.742 94.6314 291.509 93.9909 291.043 93.5863C290.577 93.1756 290.007 92.9703 289.333 92.9703C288.53 92.9703 287.902 93.2216 287.448 93.7242C287 94.2208 286.777 94.8674 286.777 95.6643V104.473H283.513V95.3701C283.513 94.6406 283.292 94.0583 282.851 93.6231C282.415 93.1879 281.845 92.9703 281.14 92.9703C280.662 92.9703 280.227 93.0929 279.835 93.3381C279.442 93.5771 279.13 93.9173 278.897 94.3587C278.664 94.7939 278.548 95.3027 278.548 95.885V104.473H275.219Z" fill="#1E1E1E"/>
<path d="M304.617 104.749C303.237 104.749 302.042 104.445 301.031 103.838C300.019 103.231 299.235 102.383 298.677 101.291C298.125 100.2 297.849 98.9253 297.849 97.4665C297.849 96.0076 298.125 94.7295 298.677 93.6323C299.235 92.5351 300.019 91.683 301.031 91.0762C302.042 90.4694 303.237 90.166 304.617 90.166C305.996 90.166 307.191 90.4694 308.202 91.0762C309.214 91.683 309.995 92.5351 310.547 93.6323C311.105 94.7295 311.384 96.0076 311.384 97.4665C311.384 98.9253 311.105 100.2 310.547 101.291C309.995 102.383 309.214 103.231 308.202 103.838C307.191 104.445 305.996 104.749 304.617 104.749ZM304.635 102.082C305.383 102.082 306.008 101.877 306.511 101.466C307.013 101.049 307.387 100.491 307.632 99.7927C307.884 99.0939 308.009 98.3154 308.009 97.4572C308.009 96.593 307.884 95.8114 307.632 95.1126C307.387 94.4077 307.013 93.8468 306.511 93.43C306.008 93.0132 305.383 92.8048 304.635 92.8048C303.869 92.8048 303.231 93.0132 302.722 93.43C302.22 93.8468 301.843 94.4077 301.592 95.1126C301.346 95.8114 301.224 96.593 301.224 97.4572C301.224 98.3154 301.346 99.0939 301.592 99.7927C301.843 100.491 302.22 101.049 302.722 101.466C303.231 101.877 303.869 102.082 304.635 102.082Z" fill="#1E1E1E"/>
<path d="M314.209 104.473V90.3498H317.436V92.7036H317.583C317.841 91.8884 318.282 91.2601 318.907 90.8188C319.539 90.3713 320.259 90.1476 321.068 90.1476C321.252 90.1476 321.457 90.1568 321.684 90.1751C321.917 90.1874 322.11 90.2089 322.263 90.2395V93.3013C322.122 93.2523 321.899 93.2094 321.592 93.1726C321.292 93.1297 321.001 93.1082 320.719 93.1082C320.112 93.1082 319.566 93.24 319.082 93.5036C318.604 93.761 318.227 94.1196 317.951 94.5793C317.675 95.0391 317.537 95.5693 317.537 96.17V104.473H314.209Z" fill="#1E1E1E"/>
<path d="M330.145 104.749C328.729 104.749 327.506 104.454 326.477 103.866C325.453 103.271 324.665 102.432 324.114 101.347C323.562 100.255 323.286 98.9713 323.286 97.494C323.286 96.0413 323.562 94.7663 324.114 93.6691C324.671 92.5657 325.45 91.7076 326.449 91.0946C327.448 90.4755 328.622 90.166 329.971 90.166C330.841 90.166 331.662 90.3069 332.435 90.5889C333.213 90.8647 333.9 91.2938 334.494 91.8761C335.095 92.4585 335.567 93.2002 335.91 94.1012C336.254 94.9962 336.425 96.0628 336.425 97.301V98.3216H324.849V96.0781H333.235C333.229 95.4406 333.091 94.8736 332.821 94.3771C332.551 93.8744 332.174 93.4791 331.69 93.191C331.212 92.9029 330.654 92.7588 330.017 92.7588C329.336 92.7588 328.739 92.9243 328.224 93.2553C327.709 93.5802 327.307 94.0093 327.019 94.5426C326.737 95.0697 326.593 95.649 326.587 96.2804V98.2388C326.587 99.0602 326.737 99.7651 327.038 100.354C327.338 100.936 327.758 101.383 328.297 101.696C328.837 102.002 329.468 102.156 330.191 102.156C330.676 102.156 331.114 102.088 331.506 101.953C331.898 101.812 332.239 101.607 332.527 101.337C332.815 101.068 333.032 100.734 333.18 100.335L336.287 100.685C336.091 101.506 335.717 102.223 335.166 102.836C334.62 103.443 333.921 103.915 333.069 104.252C332.217 104.583 331.243 104.749 330.145 104.749Z" fill="#1E1E1E"/>
<path d="M177.187 127.483L368 130.233L177.187 132.292L0 130.231L177.187 127.483Z" fill="#FFCC01"/>
<path d="M46 162.33H51.7981L59.563 181.283H59.8695L67.6344 162.33H73.4325V188.486H68.886V170.517H68.6433L61.4148 188.409H58.0177L50.7892 170.478H50.5465V188.486H46V162.33Z" fill="#23499A"/>
<path d="M78.5921 188.486V162.33H95.6033V166.302H83.3302V173.403H94.7221V177.375H83.3302V184.514H95.7054V188.486H78.5921Z" fill="#23499A"/>
<path d="M105.942 188.486L98.5598 162.33H103.655L108.368 181.551H108.611L113.643 162.33H118.278L123.323 181.564H123.553L128.266 162.33H133.361L125.98 188.486H121.305L116.069 170.134H115.865L110.616 188.486H105.942Z" fill="#23499A"/>
<path d="M137.547 188.486H132.49L141.698 162.33H147.547L156.768 188.486H151.71L144.724 167.694H144.52L137.547 188.486ZM137.713 178.23H151.506V182.036H137.713V178.23Z" fill="#23499A"/>
<path d="M160.213 188.486V162.33H170.021C172.03 162.33 173.716 162.679 175.078 163.378C176.449 164.076 177.484 165.055 178.182 166.315C178.888 167.566 179.242 169.027 179.242 170.695C179.242 172.373 178.884 173.829 178.169 175.063C177.462 176.289 176.419 177.239 175.04 177.911C173.661 178.575 171.966 178.907 169.957 178.907H162.971V174.974H169.319C170.493 174.974 171.456 174.812 172.205 174.488C172.954 174.156 173.507 173.675 173.865 173.045C174.231 172.407 174.414 171.623 174.414 170.695C174.414 169.767 174.231 168.976 173.865 168.32C173.499 167.656 172.941 167.154 172.192 166.813C171.443 166.464 170.476 166.289 169.293 166.289H164.951V188.486H160.213ZM173.725 176.634L180.2 188.486H174.912L168.552 176.634H173.725Z" fill="#23499A"/>
<path d="M192.524 188.486V162.33H202.332C204.341 162.33 206.027 162.679 207.389 163.378C208.76 164.076 209.795 165.055 210.493 166.315C211.199 167.566 211.553 169.027 211.553 170.695C211.553 172.373 211.195 173.829 210.48 175.063C209.773 176.289 208.73 177.239 207.351 177.911C205.972 178.575 204.277 178.907 202.268 178.907H195.282V174.974H201.63C202.805 174.974 203.767 174.812 204.516 174.488C205.265 174.156 205.819 173.675 206.176 173.045C206.542 172.407 206.725 171.623 206.725 170.695C206.725 169.767 206.542 168.976 206.176 168.32C205.81 167.656 205.252 167.154 204.503 166.813C203.754 166.464 202.788 166.289 201.604 166.289H197.262V188.486H192.524ZM206.036 176.634L212.511 188.486H207.223L200.863 176.634H206.036Z" fill="#23499A"/>
<path d="M215.914 188.486V162.33H232.925V166.302H220.652V173.403H232.044V177.375H220.652V184.514H233.028V188.486H215.914Z" fill="#23499A"/>
<path d="M255.281 170.683C255.068 169.993 254.775 169.376 254.4 168.831C254.034 168.277 253.591 167.805 253.072 167.413C252.561 167.022 251.974 166.728 251.309 166.532C250.645 166.328 249.922 166.226 249.138 166.226C247.734 166.226 246.482 166.579 245.384 167.286C244.285 167.992 243.421 169.031 242.791 170.402C242.17 171.764 241.859 173.424 241.859 175.382C241.859 177.358 242.17 179.031 242.791 180.402C243.413 181.772 244.277 182.815 245.384 183.53C246.49 184.237 247.776 184.59 249.241 184.59C250.569 184.59 251.718 184.335 252.689 183.824C253.668 183.313 254.421 182.59 254.949 181.653C255.477 180.708 255.741 179.601 255.741 178.333L256.814 178.499H249.713V174.795H260.326V177.937C260.326 180.176 259.849 182.113 258.896 183.748C257.942 185.382 256.631 186.642 254.962 187.528C253.293 188.405 251.378 188.843 249.215 188.843C246.806 188.843 244.69 188.303 242.868 187.221C241.054 186.132 239.637 184.586 238.615 182.585C237.602 180.576 237.095 178.192 237.095 175.434C237.095 173.322 237.393 171.436 237.989 169.776C238.594 168.116 239.437 166.707 240.518 165.549C241.599 164.382 242.868 163.497 244.324 162.892C245.78 162.279 247.363 161.973 249.075 161.973C250.522 161.973 251.871 162.186 253.123 162.611C254.375 163.028 255.486 163.624 256.456 164.399C257.435 165.174 258.24 166.094 258.87 167.158C259.5 168.222 259.913 169.397 260.109 170.683H255.281Z" fill="#23499A"/>
<path d="M269.646 162.33V188.486H264.908V162.33H269.646Z" fill="#23499A"/>
<path d="M298.148 175.408C298.148 178.226 297.62 180.64 296.564 182.649C295.517 184.65 294.087 186.183 292.273 187.247C290.468 188.311 288.42 188.843 286.13 188.843C283.84 188.843 281.788 188.311 279.974 187.247C278.169 186.174 276.739 184.637 275.683 182.636C274.636 180.627 274.112 178.218 274.112 175.408C274.112 172.59 274.636 170.18 275.683 168.18C276.739 166.17 278.169 164.633 279.974 163.569C281.788 162.505 283.84 161.973 286.13 161.973C288.42 161.973 290.468 162.505 292.273 163.569C294.087 164.633 295.517 166.17 296.564 168.18C297.62 170.18 298.148 172.59 298.148 175.408ZM293.384 175.408C293.384 173.424 293.073 171.751 292.452 170.389C291.839 169.018 290.987 167.984 289.898 167.286C288.808 166.579 287.552 166.226 286.13 166.226C284.708 166.226 283.452 166.579 282.363 167.286C281.273 167.984 280.417 169.018 279.796 170.389C279.183 171.751 278.876 173.424 278.876 175.408C278.876 177.392 279.183 179.069 279.796 180.44C280.417 181.802 281.273 182.837 282.363 183.543C283.452 184.241 284.708 184.59 286.13 184.59C287.552 184.59 288.808 184.241 289.898 183.543C290.987 182.837 291.839 181.802 292.452 180.44C293.073 179.069 293.384 177.392 293.384 175.408Z" fill="#23499A"/>
<path d="M324.121 162.33V188.486H319.907L307.583 170.67H307.365V188.486H302.627V162.33H306.867L319.179 180.159H319.409V162.33H324.121Z" fill="#23499A"/>
</svg>
