<svg xmlns="http://www.w3.org/2000/svg" width="1502" height="1494" viewBox="0 0 1502 1494" version="1.1"><path d="M 527.508 330.982 C 526.507 333.203, 525.870 335.167, 526.094 335.346 C 526.958 336.039, 563.956 355, 564.443 355 C 564.727 355, 565.875 353.205, 566.994 351.012 L 569.028 347.024 549.764 337.274 C 539.169 331.912, 530.237 327.394, 529.915 327.234 C 529.593 327.074, 528.510 328.761, 527.508 330.982 M 963.242 337.174 L 943.984 347.049 946.013 351.025 C 947.128 353.211, 948.292 355, 948.598 355 C 949.116 355, 986.007 336.076, 986.906 335.349 C 987.489 334.878, 983.816 326.970, 983.098 327.150 C 982.769 327.232, 973.834 331.743, 963.242 337.174 M 713 350.024 C 626.646 355.602, 577.563 372.967, 584.944 395.330 C 589.738 409.856, 624.908 422.355, 678 428.401 C 713.476 432.442, 769.837 433.665, 803 431.114 C 879.705 425.215, 925 410.303, 925 390.951 C 925 372.263, 885.337 358.044, 814.810 351.447 C 795.441 349.635, 732.614 348.757, 713 350.024 M 722 358.595 C 671.308 361.985, 643.322 366.235, 619.195 374.206 C 606.601 378.367, 596.076 384.120, 594.016 387.970 C 589.599 396.223, 608.716 406.435, 641.552 413.364 C 674.013 420.213, 708.027 423.222, 753.500 423.268 C 813.686 423.328, 862.372 417.439, 893.212 406.368 C 907.179 401.354, 916 395.405, 916 391 C 916 387.715, 910.978 383.064, 903.654 379.566 C 884.972 370.642, 855.234 364.315, 813.810 360.451 C 798.514 359.024, 734.835 357.736, 722 358.595 M 513 385.500 L 513 390 533.500 390 L 554 390 554 385.500 L 554 381 533.500 381 L 513 381 513 385.500 M 959 385.500 L 959 390 979.500 390 L 1000 390 1000 385.500 L 1000 381 979.500 381 L 959 381 959 385.500 M 544 426.634 C 533.825 431.338, 525.303 435.379, 525.063 435.614 C 524.822 435.849, 525.497 437.798, 526.563 439.946 L 528.500 443.851 548.208 434.803 L 567.916 425.756 565.938 421.878 C 564.850 419.745, 563.631 418.018, 563.230 418.040 C 562.828 418.063, 554.175 421.930, 544 426.634 M 947.339 421.414 C 946.272 423.652, 945.977 425.365, 946.560 425.929 C 947.077 426.429, 955.825 430.663, 966 435.338 L 984.500 443.837 986.208 440.669 C 987.148 438.926, 987.935 437.013, 987.958 436.417 C 987.991 435.572, 959.286 421.713, 950.779 418.465 C 949.485 417.971, 948.633 418.701, 947.339 421.414 M 740 450.681 C 690.841 455.743, 649.015 473.012, 620.726 499.925 C 593.516 525.813, 581.059 556.084, 582.187 593.579 L 582.621 608 578.278 608 C 575.890 608, 572.481 608.608, 570.702 609.351 C 559.430 614.061, 552.915 635.483, 557.831 651.669 C 560.215 659.518, 565.932 668.932, 572 675 C 576.503 679.503, 587.520 687, 589.635 687 C 591.407 687, 593.785 691.946, 599.492 707.500 C 610.978 738.806, 621.877 757.897, 638.514 775.848 C 666.930 806.510, 711.852 824.712, 764 826.692 C 787.787 827.596, 804.878 823.928, 827.759 813.009 C 876.480 789.761, 920.433 737.372, 928.086 693.427 L 929.211 686.965 936.356 682.806 C 946.676 676.798, 955.347 668.107, 959.559 659.548 C 966.308 645.835, 967.626 629.506, 963.049 616.332 C 960.351 608.569, 957.342 606, 950.944 606 C 948.225 606, 945.988 605.663, 945.972 605.250 C 945.957 604.837, 945.780 599.775, 945.579 594 C 944.894 574.323, 937.812 549.852, 927.860 532.775 C 919.405 518.266, 908.611 509.748, 896.991 508.414 C 891.652 507.801, 891.390 507.625, 888.491 502.722 C 886.846 499.939, 881.900 493.965, 877.500 489.446 C 857.897 469.313, 828.470 456.461, 790.699 451.538 C 779.984 450.142, 750.135 449.637, 740 450.681 M 865.868 540.443 C 863.891 541.787, 859.399 543.921, 855.886 545.184 C 850.038 547.288, 847.857 547.479, 830 547.456 C 818.579 547.441, 804.078 546.726, 795 545.731 C 757.232 541.590, 735.113 541.562, 709.510 545.622 C 690.287 548.671, 669.069 557.307, 654.240 568.117 L 647.543 573 699.271 573 L 751 573 751 583.500 L 751 594 762.500 594 L 774 594 774 583.500 L 774 573 827.500 573 L 881 573 881 583.500 L 881 594 892.906 594 L 904.812 594 892.032 571.594 C 878.591 548.031, 872.175 538.032, 870.482 538.012 C 869.922 538.005, 867.846 539.100, 865.868 540.443 M 636.414 583.250 C 625.223 594.782, 625.262 594, 635.878 594 L 645 594 645 585 C 645 580.050, 644.651 576, 644.225 576 C 643.799 576, 640.284 579.263, 636.414 583.250 M 654.192 609.750 L 654.500 637.500 657.701 644.259 C 662.148 653.646, 669.557 661.177, 678.873 665.782 C 686.248 669.427, 686.625 669.500, 698 669.500 C 709.375 669.500, 709.752 669.427, 717.127 665.782 C 726.443 661.177, 733.852 653.646, 738.299 644.259 L 741.500 637.500 741.808 609.750 L 742.116 582 698 582 L 653.884 582 654.192 609.750 M 783 607.411 C 783 629.542, 783.245 633.608, 784.895 638.909 C 788.696 651.123, 797.190 660.849, 808.820 666.304 C 814.504 668.970, 816.917 669.494, 825 669.819 C 832.802 670.133, 835.647 669.814, 840.917 668.034 C 854.434 663.468, 864.225 653.823, 869.268 640.106 C 871.103 635.115, 871.377 631.619, 871.762 608.250 L 872.194 582 827.597 582 L 783 582 783 607.411 M 798.972 595.236 C 797.017 603.969, 798.068 618.355, 801.149 625.046 C 806.711 637.126, 815.348 643.016, 827.446 642.978 C 835.797 642.952, 841.028 640.906, 846.351 635.582 C 854.256 627.677, 857.658 616.111, 856.718 600.342 C 856.405 595.103, 855.921 590.588, 855.642 590.309 C 855.363 590.030, 853.319 590.108, 851.100 590.483 L 847.064 591.165 847.661 600.332 C 849.089 622.273, 840.868 634.882, 825.844 633.795 C 818.723 633.280, 813.760 629.716, 810.004 622.423 C 807.130 616.840, 806.113 604.710, 807.873 597 C 809.055 591.818, 808.636 591.140, 803.761 590.349 L 800.195 589.770 798.972 595.236 M 669.659 591.743 C 669.367 592.215, 668.590 595.691, 667.933 599.465 C 664.697 618.046, 671.339 635.113, 684.261 641.421 C 703.695 650.909, 722.870 638.404, 725.901 614.264 C 726.691 607.971, 725.936 592.603, 724.780 591.447 C 724.517 591.184, 722.546 591.344, 720.401 591.803 C 717.353 592.455, 716.556 593.059, 716.754 594.569 C 716.894 595.631, 717.047 600.775, 717.094 606 C 717.233 621.516, 712.472 630.745, 702.330 634.618 C 698.412 636.114, 697.138 636.184, 693.158 635.120 C 686.623 633.372, 682.154 629.577, 679.307 623.360 C 676.201 616.576, 675.426 609.118, 676.929 600.489 C 677.578 596.760, 677.747 593.372, 677.305 592.960 C 675.985 591.731, 670.232 590.815, 669.659 591.743 M 618.614 604.528 C 616.805 606.338, 607.206 621.717, 604.164 627.679 C 601.199 633.491, 598.679 634.048, 594.334 629.849 C 592.428 628.007, 589.954 625.027, 588.837 623.226 C 584.846 616.789, 577.341 615.160, 572.079 619.587 C 567.750 623.229, 564.559 633.918, 565.246 642.475 C 566.322 655.882, 577.468 671.010, 591.206 677.708 C 599.287 681.648, 600.074 682.868, 607.520 703 C 619.872 736.397, 630.504 754.555, 647.963 772.072 C 669.206 793.385, 695.227 806.655, 729 813.396 C 764.119 820.406, 786.635 819.462, 811.964 809.917 C 834.518 801.418, 853.274 788.751, 874.013 768.013 C 890.992 751.033, 899.398 739.705, 908.529 721.500 C 914.555 709.484, 917.665 699.898, 920.622 684.222 C 921.055 681.927, 922.120 681.088, 936.244 671.901 C 949.882 663.030, 956.417 650.623, 956.472 633.500 C 956.492 627.112, 955.968 623.121, 954.667 619.750 C 952.543 614.243, 951.745 614.054, 943.035 616.988 C 933.761 620.113, 927.500 618.061, 917.194 608.520 L 911.233 603 896.246 603 L 881.260 603 880.736 619.250 C 880.017 641.558, 877.185 650.154, 866.804 661.536 C 856.085 673.289, 843.302 679.071, 827.986 679.095 C 811.937 679.121, 800.773 674.698, 789.883 664 C 777.663 651.995, 774 641.454, 774 618.290 L 774 603 762.500 603 L 751 603 750.976 618.750 C 750.962 627.413, 750.487 636.512, 749.921 638.972 C 747.210 650.737, 737.556 664.227, 726.999 671.001 C 718.127 676.694, 709.876 678.958, 698 678.958 C 686.124 678.958, 677.873 676.694, 669.001 671.001 C 658.444 664.227, 648.790 650.737, 646.079 638.972 C 645.513 636.512, 645.038 627.413, 645.024 618.750 L 645 603 632.571 603 C 622.754 603, 619.822 603.321, 618.614 604.528 M 738.559 689.938 L 735.744 692.876 738.622 695.437 C 740.205 696.846, 744.416 699.461, 747.979 701.249 C 753.856 704.198, 755.296 704.500, 763.479 704.500 C 771.262 704.500, 773.257 704.128, 778.012 701.793 C 781.044 700.304, 784.985 697.579, 786.770 695.737 L 790.015 692.389 787.047 689.545 L 784.080 686.702 780.546 689.397 C 769.576 697.764, 760.162 698.083, 747.588 690.511 C 744.381 688.580, 741.671 687, 741.566 687 C 741.460 687, 740.107 688.322, 738.559 689.938 M 684.676 850.461 L 679.934 866.922 702.974 901.461 C 715.646 920.457, 726.376 936, 726.817 936 C 727.259 936, 731.564 923.513, 736.383 908.250 C 741.202 892.987, 747.391 873.413, 750.135 864.750 L 755.125 849 766.562 849 C 772.853 849, 778 849.203, 778 849.451 C 778 849.801, 790.070 888.282, 804.128 932.750 C 804.693 934.538, 805.500 936, 805.921 936 C 806.342 936, 817.078 920.362, 829.779 901.250 L 852.871 866.500 848.185 850.258 L 843.500 834.016 766.459 834.008 L 689.418 834 684.676 850.461 M 700.944 939.844 C 695.874 943.950, 699.222 952, 706 952 C 710.523 952, 713.333 949.253, 713.333 944.831 C 713.333 941.054, 710.055 938, 706 938 C 704.472 938, 702.197 938.830, 700.944 939.844 M 612 972.500 L 612 1004 619.500 1004 L 627 1004 627 992 L 627 980 637.500 980 L 648 980 648 974.500 L 648 969 637.500 969 L 627 969 627 961 L 627 953 640.500 953 L 654 953 654 947 L 654 941 633 941 L 612 941 612 972.500 M 784 953 C 784 957.889, 783.933 958, 781 958 C 778.067 958, 778 958.111, 778 963 C 778 967.889, 778.067 968, 781 968 L 784 968 784 982.096 C 784 993.500, 784.321 996.734, 785.680 999.035 C 788.320 1003.504, 792.496 1005.192, 800 1004.821 L 806.500 1004.500 806.802 999.250 L 807.105 994 803.252 994 C 801.134 994, 798.860 993.460, 798.200 992.800 C 797.402 992.002, 797 987.644, 797 979.800 L 797 968 802 968 L 807 968 807 963 L 807 958 802 958 L 797 958 797 953 L 797 948 790.500 948 L 784 948 784 953 M 683.604 958.038 C 682.012 958.515, 679.424 960.136, 677.854 961.640 L 675 964.374 675 961.187 L 675 958 668 958 L 661 958 661 981 L 661 1004 668 1004 L 675 1004 675 991.065 C 675 983.951, 675.431 976.997, 675.957 975.613 C 677.149 972.478, 681.781 970, 686.450 970 L 690 970 690 963.500 C 690 956.404, 689.758 956.197, 683.604 958.038 M 745.353 958.927 C 743.072 959.963, 740.723 961.640, 740.133 962.655 C 739.210 964.244, 739.057 964.049, 739.030 961.250 L 739 958 732.500 958 L 726 958 726 981 L 726 1004 732.500 1004 L 739 1004 739 988.923 L 739 973.846 741.923 970.923 C 745.506 967.340, 750.926 966.926, 754 970 C 755.833 971.833, 756 973.333, 756 988 L 756 1004 763.097 1004 L 770.194 1004 769.847 986.250 C 769.540 970.523, 769.266 968.102, 767.446 965.003 C 762.936 957.326, 754.182 954.918, 745.353 958.927 M 827.429 959.381 C 813.173 966.019, 809.252 985.510, 819.817 997.227 C 824.925 1002.893, 829.922 1004.951, 838.636 1004.978 C 853.064 1005.022, 862.051 996.795, 862.841 982.817 C 863.324 974.258, 861.441 968.812, 856.242 963.738 C 849.103 956.771, 836.974 954.936, 827.429 959.381 M 894 958.561 C 892.075 959.376, 889.490 961.271, 888.255 962.772 L 886.010 965.500 886.005 961.750 L 886 958 879.500 958 L 873 958 873 981 L 873 1004 879.404 1004 L 885.808 1004 886.154 990.021 C 886.489 976.470, 886.580 975.962, 889.132 973.412 C 890.949 971.596, 893.196 970.620, 896.382 970.260 L 901 969.740 901 963.370 C 901 956.219, 900.439 955.834, 894 958.561 M 699 981 L 699 1004 706 1004 L 713 1004 713 981 L 713 958 706 958 L 699 958 699 981 M 834.500 967.899 C 830.068 969.816, 828.546 972.858, 828.156 980.580 C 827.786 987.909, 827.817 988.017, 831.291 991.491 C 835.191 995.391, 839.091 996.038, 843.855 993.575 C 850.666 990.053, 851.755 975.876, 845.655 970.145 C 843.021 967.671, 837.566 966.573, 834.500 967.899" stroke="none" fill="#2c73d2" fill-rule="evenodd"/><path d="" stroke="none" fill="#3074d4" fill-rule="evenodd"/><path d="" stroke="none" fill="#2c74d4" fill-rule="evenodd"/></svg>